<svg width="477" height="711" viewBox="0 0 477 711" fill="none" xmlns="http://www.w3.org/2000/svg">
<g clip-path="url(#clip0_23_208)">
<path d="M134.85 27.79C134.85 27.79 187.03 7.5 233.41 8.95C279.79 10.4 329.06 24.89 329.06 24.89C329.06 24.89 300.07 295.9 302.97 374.17C305.87 452.44 330.51 681.42 330.51 681.42C330.51 681.42 282.68 703.16 237.76 700.26C192.83 697.36 140.66 682.87 140.66 682.87C140.66 682.87 164.54 443.74 164.54 349.54C164.54 255.34 134.85 27.79 134.85 27.79Z" fill="white" stroke="black" stroke-width="0.5" stroke-miterlimit="10"/>
<path d="M94.27 165.36C94.27 165.36 133.4 87.48 129.05 29.85C129.05 29.85 146.44 0.259995 231.95 0.259995C317.46 0.259995 342.09 20.51 342.09 20.51C342.09 20.51 356.89 138.89 377.18 160.69C377.18 160.69 281.22 180.94 229.05 180.94C176.88 180.94 94.27 165.36 94.27 165.36V165.36Z" fill="white" stroke="black" stroke-width="0.5" stroke-miterlimit="10"/>
<path d="M380.26 544.43C380.26 544.43 338.08 623.74 340.14 683.69C340.14 683.69 321.59 713.73 236.15 710.47C150.7 707.21 126.89 685.26 126.89 685.26C126.89 685.26 116.79 561.88 97.3799 538.49C97.3799 538.49 194.07 521.14 246.2 523.13C298.34 525.12 380.27 544.43 380.27 544.43H380.26Z" fill="white" stroke="black" stroke-width="0.5" stroke-miterlimit="10"/>
<path d="M238.18 591.64C174.59 591.64 114.81 566.88 69.8501 521.91C24.8901 476.95 0.120117 417.17 0.120117 353.59C0.120117 290.01 24.8801 230.22 69.8501 185.26C114.81 140.3 174.6 115.53 238.18 115.53C301.76 115.53 361.55 140.29 406.51 185.26C451.47 230.22 476.24 290 476.24 353.59C476.24 417.18 451.48 476.96 406.51 521.92C361.54 566.88 301.77 591.65 238.18 591.65V591.64Z" fill="white"/>
<path d="M238.18 115.65C270.3 115.65 301.46 121.94 330.79 134.35C359.12 146.33 384.57 163.49 406.42 185.34C428.27 207.19 445.43 232.64 457.41 260.97C469.82 290.3 476.11 321.46 476.11 353.58C476.11 385.7 469.82 416.86 457.41 446.19C445.43 474.52 428.27 499.97 406.42 521.82C384.57 543.67 359.12 560.83 330.79 572.81C301.46 585.22 270.3 591.51 238.18 591.51C206.06 591.51 174.9 585.22 145.57 572.81C117.24 560.83 91.79 543.67 69.94 521.82C48.09 499.97 30.93 474.52 18.95 446.19C6.54 416.87 0.25 385.71 0.25 353.58C0.25 321.45 6.54 290.3 18.95 260.97C30.93 232.64 48.09 207.19 69.94 185.34C91.79 163.49 117.24 146.33 145.57 134.35C174.9 121.94 206.06 115.65 238.18 115.65M238.18 115.4C106.64 115.4 0 222.04 0 353.58C0 485.12 106.64 591.76 238.18 591.76C369.72 591.76 476.36 485.12 476.36 353.58C476.36 222.04 369.73 115.4 238.18 115.4V115.4Z" fill="black"/>
<path d="M238.18 573.97C179.31 573.97 123.97 551.05 82.3498 509.42C40.7298 467.79 17.7998 412.45 17.7998 353.59C17.7998 294.73 40.7198 239.38 82.3498 197.76C123.97 156.14 179.32 133.21 238.18 133.21C297.04 133.21 352.39 156.13 394.01 197.76C435.63 239.38 458.56 294.73 458.56 353.59C458.56 412.45 435.64 467.8 394.01 509.42C352.38 551.04 297.04 573.97 238.18 573.97V573.97Z" fill="white"/>
<path d="M238.18 133.33C267.91 133.33 296.76 139.15 323.91 150.64C350.14 161.73 373.69 177.62 393.92 197.84C414.15 218.07 430.03 241.62 441.12 267.85C452.61 295 458.43 323.85 458.43 353.58C458.43 383.31 452.61 412.16 441.12 439.31C430.03 465.54 414.14 489.09 393.92 509.32C373.69 529.55 350.14 545.43 323.91 556.52C296.76 568.01 267.91 573.83 238.18 573.83C208.45 573.83 179.6 568.01 152.45 556.52C126.22 545.43 102.67 529.54 82.4399 509.32C62.2099 489.1 46.3299 465.54 35.2399 439.31C23.7499 412.16 17.9299 383.31 17.9299 353.58C17.9299 323.85 23.7499 295 35.2399 267.85C46.3299 241.62 62.2199 218.07 82.4399 197.84C102.67 177.61 126.22 161.73 152.45 150.64C179.6 139.15 208.45 133.33 238.18 133.33M238.18 133.08C116.4 133.08 17.6699 231.8 17.6699 353.59C17.6699 475.38 116.4 574.1 238.18 574.1C359.96 574.1 458.69 475.38 458.69 353.59C458.69 231.8 359.97 133.08 238.18 133.08V133.08Z" fill="black"/>
<path d="M238.18 548.11C345.616 548.11 432.71 461.016 432.71 353.58C432.71 246.144 345.616 159.05 238.18 159.05C130.744 159.05 43.6499 246.144 43.6499 353.58C43.6499 461.016 130.744 548.11 238.18 548.11Z" fill="white" stroke="black" stroke-width="0.5" stroke-miterlimit="10"/>
<path d="M114.88 248.05H134.4C136.51 248.05 138.44 248.99 140.19 250.87C141.4 252.47 142.01 254.06 142.01 255.66V313.61C142.01 315.72 141.07 317.65 139.19 319.4C137.59 320.61 136 321.22 134.4 321.22H124.16C122.31 321.22 120.55 320.47 118.9 318.97C117.3 317.34 116.51 315.43 116.51 313.23V273.56H115.36C112.14 273.56 109.7 272.06 108.04 269.06C107.53 267.94 107.27 266.89 107.27 265.9V255.66C107.27 253.55 108.21 251.62 110.09 249.87C111.68 248.66 113.28 248.05 114.88 248.05V248.05ZM110.09 256.62V264.95C110.09 266.99 110.65 268.44 111.76 269.3C112.72 270.23 113.9 270.69 115.3 270.69H118.36C118.9 270.69 119.24 271.06 119.36 271.79V313.18C119.36 315.45 120.49 317.09 122.76 318.11C123.37 318.3 124.15 318.4 125.1 318.4H133.43C135.18 318.4 136.51 317.97 137.4 317.11C138.17 316.5 138.72 315.56 139.07 314.29C139.13 313.91 139.17 313.37 139.17 312.66V256.63C139.17 254.88 138.75 253.57 137.93 252.71C137.29 251.94 136.37 251.39 135.15 251.04C134.64 250.94 134.07 250.9 133.43 250.9H115.82C114.07 250.9 112.76 251.33 111.9 252.19C111.13 252.8 110.58 253.71 110.23 254.92C110.13 255.43 110.09 256 110.09 256.64V256.62ZM134.26 254.56C134.74 254.56 135.12 254.88 135.41 255.52C135.47 255.62 135.51 255.76 135.51 255.95V313.32C135.51 313.96 135.13 314.42 134.36 314.71H124.31C123.45 314.52 123.02 314.01 123.02 313.18V267.05H115.46C114.63 267.05 114.1 266.73 113.88 266.09C113.82 265.99 113.78 265.88 113.78 265.76V255.95C113.78 255.31 114.16 254.85 114.93 254.56H134.26V254.56ZM116.65 257.43V264.18H124.59C125.16 264.18 125.59 264.55 125.88 265.28V311.84H132.63V257.43H116.65V257.43Z" fill="black"/>
<path d="M181.44 248.05H182.64C188.45 248.05 194.19 249.58 199.87 252.64C201.82 253.66 204.18 255.37 206.95 257.76C209.41 260.25 210.87 261.92 211.35 262.78C212.85 264.76 214.03 266.66 214.89 268.47C217.38 273.67 218.62 278.85 218.62 284.02V285.22C218.62 291.03 217.09 296.77 214.03 302.45C213.01 304.4 211.3 306.76 208.91 309.53C206.49 311.95 204.6 313.6 203.26 314.46C201.38 315.77 199.43 316.9 197.42 317.86C192.38 320.09 187.45 321.21 182.63 321.21H181.43C175.62 321.21 169.88 319.68 164.2 316.62C162.25 315.6 159.89 313.89 157.12 311.5C154.7 309.08 153.05 307.19 152.19 305.85C150.88 303.97 149.75 302.02 148.79 300.01C146.56 294.97 145.44 290.04 145.44 285.22V284.02C145.44 278.21 146.97 272.47 150.03 266.79C151.05 264.84 152.76 262.48 155.15 259.71C157.57 257.29 159.46 255.64 160.8 254.78C162.68 253.47 164.63 252.34 166.64 251.38C171.68 249.15 176.61 248.03 181.43 248.03L181.44 248.05ZM148.42 284.61C148.42 292.59 151.07 299.83 156.36 306.33C158.21 308.37 159.69 309.82 160.81 310.68C167.19 315.72 174.27 318.24 182.06 318.24C189.85 318.24 197.23 315.59 203.74 310.3C205.78 308.45 207.23 306.97 208.09 305.85C213.13 299.47 215.65 292.39 215.65 284.6C215.65 276.81 213 269.43 207.71 262.92C205.86 260.88 204.38 259.43 203.26 258.57C196.88 253.53 189.81 251.01 182.06 251.01C174.31 251.01 166.84 253.66 160.34 258.95C158.3 260.8 156.85 262.28 155.99 263.4C150.95 269.78 148.43 276.85 148.43 284.6L148.42 284.61ZM181.39 254.94H182.68C187.59 254.94 192.52 256.36 197.47 259.2C203.15 262.68 207.3 267.69 209.91 274.23C211.12 277.74 211.73 280.99 211.73 283.99V285.28C211.73 290.19 210.31 295.12 207.47 300.07C204.06 305.62 199.22 309.7 192.97 312.32C189.36 313.66 185.94 314.33 182.68 314.33H181.39C176.48 314.33 171.55 312.91 166.6 310.07C161.05 306.66 156.97 301.82 154.35 295.57C153.01 291.97 152.34 288.54 152.34 285.28V283.99C152.34 279.08 153.76 274.15 156.6 269.2C160.01 263.65 164.81 259.58 171 257C174.6 255.63 178.07 254.94 181.38 254.94H181.39ZM155.36 284.08V285.18C155.36 289.9 156.76 294.54 159.57 299.1C160.3 300.31 161.48 301.78 163.11 303.5C165.18 305.41 166.94 306.77 168.37 307.57C172.71 310.06 177.08 311.3 181.48 311.3H182.58C187.3 311.3 191.94 309.9 196.5 307.09C197.71 306.36 199.18 305.18 200.9 303.55C202.78 301.54 204.14 299.79 204.97 298.29C207.46 293.95 208.7 289.58 208.7 285.18V284.08C208.7 279.36 207.3 274.72 204.49 270.16C203.76 268.95 202.58 267.48 200.95 265.76C198.88 263.85 197.12 262.49 195.69 261.69C191.35 259.2 186.98 257.96 182.58 257.96H181.48C176.76 257.96 172.12 259.36 167.56 262.17C166.35 262.9 164.88 264.08 163.16 265.71C161.25 267.78 159.89 269.54 159.09 270.97C156.6 275.31 155.36 279.68 155.36 284.08V284.08ZM181.92 264.56H182.16C187.26 264.56 191.84 266.41 195.89 270.11C200.04 274.29 202.11 279.09 202.11 284.51V284.75C202.11 289.85 200.26 294.43 196.56 298.48C192.38 302.63 187.58 304.7 182.16 304.7H181.92C176.82 304.7 172.24 302.85 168.19 299.15C164.04 294.97 161.97 290.17 161.97 284.75V284.51C161.97 279.41 163.82 274.83 167.52 270.78C171.7 266.63 176.5 264.56 181.92 264.56ZM165.03 284.56V284.7C165.03 289.13 166.62 293.07 169.82 296.52C173.33 299.93 177.38 301.64 181.97 301.64H182.11C186.54 301.64 190.48 300.05 193.93 296.85C197.34 293.34 199.05 289.29 199.05 284.7V284.56C199.05 280.13 197.45 276.19 194.26 272.74C190.75 269.33 186.7 267.62 182.11 267.62H181.97C177.54 267.62 173.6 269.22 170.15 272.41C166.74 275.92 165.03 279.97 165.03 284.56Z" fill="black"/>
<path d="M229.34 288.62L233.26 284.6C233.74 284.15 234.2 283.93 234.65 283.93C235.06 283.93 235.56 284.19 236.13 284.7L239.96 288.82C240.34 289.33 240.53 289.79 240.53 290.21C240.53 290.69 240.31 291.18 239.86 291.69L236.03 295.9C235.39 296.54 234.93 296.86 234.64 296.86C234.13 296.86 233.67 296.64 233.25 296.19L229.04 291.36C228.72 290.95 228.56 290.53 228.56 290.12C228.56 289.64 228.81 289.15 229.33 288.64L229.34 288.62ZM229.34 321.78L233.26 317.76C233.74 317.31 234.2 317.09 234.65 317.09C235.06 317.09 235.56 317.35 236.13 317.86L239.96 321.98C240.34 322.49 240.53 322.95 240.53 323.37C240.53 323.85 240.31 324.34 239.86 324.85L236.03 329.06C235.39 329.7 234.93 330.02 234.64 330.02C234.13 330.02 233.67 329.8 233.25 329.35L229.04 324.52C228.72 324.11 228.56 323.69 228.56 323.28C228.56 322.8 228.81 322.31 229.33 321.8L229.34 321.78Z" fill="black"/>
<path d="M256.67 248.05H276.19C278.3 248.05 280.23 248.99 281.98 250.87C283.19 252.47 283.8 254.06 283.8 255.66V313.61C283.8 315.72 282.86 317.65 280.98 319.4C279.38 320.61 277.79 321.22 276.19 321.22H265.95C264.1 321.22 262.34 320.47 260.69 318.97C259.09 317.34 258.3 315.43 258.3 313.23V273.56H257.15C253.93 273.56 251.49 272.06 249.83 269.06C249.32 267.94 249.06 266.89 249.06 265.9V255.66C249.06 253.55 250 251.62 251.88 249.87C253.47 248.66 255.07 248.05 256.67 248.05V248.05ZM251.88 256.62V264.95C251.88 266.99 252.44 268.44 253.55 269.3C254.51 270.23 255.69 270.69 257.09 270.69H260.15C260.69 270.69 261.03 271.06 261.15 271.79V313.18C261.15 315.45 262.28 317.09 264.55 318.11C265.16 318.3 265.94 318.4 266.89 318.4H275.22C276.97 318.4 278.3 317.97 279.19 317.11C279.96 316.5 280.51 315.56 280.86 314.29C280.92 313.91 280.96 313.37 280.96 312.66V256.63C280.96 254.88 280.54 253.57 279.72 252.71C279.08 251.94 278.16 251.39 276.94 251.04C276.43 250.94 275.86 250.9 275.22 250.9H257.61C255.86 250.9 254.55 251.33 253.69 252.19C252.92 252.8 252.37 253.71 252.02 254.92C251.92 255.43 251.88 256 251.88 256.64V256.62ZM276.05 254.56C276.53 254.56 276.91 254.88 277.2 255.52C277.26 255.62 277.3 255.76 277.3 255.95V313.32C277.3 313.96 276.92 314.42 276.15 314.71H266.1C265.24 314.52 264.81 314.01 264.81 313.18V267.05H257.25C256.42 267.05 255.89 266.73 255.67 266.09C255.61 265.99 255.57 265.88 255.57 265.76V255.95C255.57 255.31 255.95 254.85 256.72 254.56H276.05V254.56ZM258.44 257.43V264.18H266.38C266.95 264.18 267.38 264.55 267.67 265.28V311.84H274.42V257.43H258.44V257.43Z" fill="black"/>
<path d="M323.23 248.05H324.43C330.24 248.05 335.98 249.58 341.66 252.64C343.61 253.66 345.97 255.37 348.74 257.76C351.2 260.25 352.66 261.92 353.14 262.78C354.64 264.76 355.82 266.66 356.68 268.47C359.17 273.67 360.41 278.85 360.41 284.02V285.22C360.41 291.03 358.88 296.77 355.82 302.45C354.8 304.4 353.09 306.76 350.7 309.53C348.28 311.95 346.39 313.6 345.05 314.46C343.17 315.77 341.22 316.9 339.21 317.86C334.17 320.09 329.24 321.21 324.42 321.21H323.22C317.41 321.21 311.67 319.68 305.99 316.62C304.04 315.6 301.68 313.89 298.91 311.5C296.49 309.08 294.84 307.19 293.98 305.85C292.67 303.97 291.54 302.02 290.58 300.01C288.35 294.97 287.23 290.04 287.23 285.22V284.02C287.23 278.21 288.76 272.47 291.82 266.79C292.84 264.84 294.55 262.48 296.94 259.71C299.36 257.29 301.25 255.64 302.59 254.78C304.47 253.47 306.42 252.34 308.43 251.38C313.47 249.15 318.4 248.03 323.22 248.03L323.23 248.05ZM290.21 284.61C290.21 292.59 292.86 299.83 298.15 306.33C300 308.37 301.48 309.82 302.6 310.68C308.98 315.72 316.06 318.24 323.85 318.24C331.64 318.24 339.02 315.59 345.53 310.3C347.57 308.45 349.02 306.97 349.88 305.85C354.92 299.47 357.44 292.39 357.44 284.6C357.44 276.81 354.79 269.43 349.5 262.92C347.65 260.88 346.17 259.43 345.05 258.57C338.67 253.53 331.6 251.01 323.85 251.01C316.1 251.01 308.63 253.66 302.13 258.95C300.09 260.8 298.64 262.28 297.78 263.4C292.74 269.78 290.22 276.85 290.22 284.6L290.21 284.61ZM323.18 254.94H324.47C329.38 254.94 334.31 256.36 339.26 259.2C344.94 262.68 349.09 267.69 351.7 274.23C352.91 277.74 353.52 280.99 353.52 283.99V285.28C353.52 290.19 352.1 295.12 349.26 300.07C345.85 305.62 341.01 309.7 334.76 312.32C331.15 313.66 327.73 314.33 324.47 314.33H323.18C318.27 314.33 313.34 312.91 308.39 310.07C302.84 306.66 298.76 301.82 296.14 295.57C294.8 291.97 294.13 288.54 294.13 285.28V283.99C294.13 279.08 295.55 274.15 298.39 269.2C301.8 263.65 306.6 259.58 312.79 257C316.39 255.63 319.86 254.94 323.17 254.94H323.18ZM297.15 284.08V285.18C297.15 289.9 298.55 294.54 301.36 299.1C302.09 300.31 303.27 301.78 304.9 303.5C306.97 305.41 308.73 306.77 310.16 307.57C314.5 310.06 318.87 311.3 323.27 311.3H324.37C329.09 311.3 333.73 309.9 338.29 307.09C339.5 306.36 340.97 305.18 342.69 303.55C344.57 301.54 345.93 299.79 346.76 298.29C349.25 293.95 350.49 289.58 350.49 285.18V284.08C350.49 279.36 349.09 274.72 346.28 270.16C345.55 268.95 344.37 267.48 342.74 265.76C340.67 263.85 338.91 262.49 337.48 261.69C333.14 259.2 328.77 257.96 324.37 257.96H323.27C318.55 257.96 313.91 259.36 309.35 262.17C308.14 262.9 306.67 264.08 304.95 265.71C303.04 267.78 301.68 269.54 300.88 270.97C298.39 275.31 297.15 279.68 297.15 284.08ZM323.71 264.56H323.95C329.05 264.56 333.63 266.41 337.68 270.11C341.83 274.29 343.9 279.09 343.9 284.51V284.75C343.9 289.85 342.05 294.43 338.35 298.48C334.17 302.63 329.37 304.7 323.95 304.7H323.71C318.61 304.7 314.03 302.85 309.98 299.15C305.83 294.97 303.76 290.17 303.76 284.75V284.51C303.76 279.41 305.61 274.83 309.31 270.78C313.49 266.63 318.29 264.56 323.71 264.56ZM306.82 284.56V284.7C306.82 289.13 308.41 293.07 311.61 296.52C315.12 299.93 319.17 301.64 323.76 301.64H323.9C328.33 301.64 332.27 300.05 335.72 296.85C339.13 293.34 340.84 289.29 340.84 284.7V284.56C340.84 280.13 339.24 276.19 336.05 272.74C332.54 269.33 328.49 267.62 323.9 267.62H323.76C319.33 267.62 315.39 269.22 311.94 272.41C308.53 275.92 306.82 279.97 306.82 284.56Z" fill="black"/>
<path d="M155.09 222.03V200.56H157.93V219.5H168.51V222.03H155.09V222.03Z" fill="black"/>
<path d="M181.39 222.03V219.74C180.18 221.5 178.53 222.38 176.45 222.38C175.53 222.38 174.67 222.2 173.88 221.85C173.08 221.5 172.49 221.06 172.11 220.52C171.73 219.98 171.45 219.34 171.3 218.56C171.19 218.04 171.14 217.22 171.14 216.1V206.46H173.78V215.09C173.78 216.47 173.83 217.39 173.94 217.87C174.11 218.56 174.46 219.11 174.99 219.5C175.52 219.89 176.19 220.09 176.98 220.09C177.77 220.09 178.51 219.89 179.21 219.48C179.91 219.07 180.39 218.52 180.68 217.82C180.97 217.12 181.11 216.11 181.11 214.78V206.45H183.75V222.01H181.39V222.03Z" fill="black"/>
<path d="M187.52 222.03V206.47H189.89V208.68C191.03 206.97 192.68 206.12 194.84 206.12C195.78 206.12 196.64 206.29 197.42 206.63C198.2 206.97 198.8 207.41 199.19 207.96C199.58 208.51 199.85 209.16 200.01 209.91C200.11 210.4 200.16 211.25 200.16 212.47V222.04H197.52V212.58C197.52 211.51 197.42 210.7 197.21 210.17C197 209.64 196.64 209.21 196.12 208.9C195.6 208.58 194.98 208.42 194.28 208.42C193.16 208.42 192.19 208.78 191.37 209.49C190.55 210.2 190.15 211.56 190.15 213.55V222.05H187.51L187.52 222.03Z" fill="black"/>
<path d="M204.59 222.03V219.03H207.59V222.03H204.59Z" fill="black"/>
<path d="M240.89 219.5V222.03H226.7C226.68 221.4 226.78 220.78 227.01 220.2C227.37 219.23 227.95 218.28 228.75 217.34C229.55 216.4 230.7 215.32 232.2 214.09C234.53 212.18 236.11 210.66 236.93 209.54C237.75 208.42 238.16 207.36 238.16 206.37C238.16 205.33 237.79 204.44 237.04 203.73C236.29 203.01 235.32 202.65 234.12 202.65C232.85 202.65 231.83 203.03 231.07 203.79C230.31 204.55 229.92 205.61 229.91 206.95L227.2 206.67C227.39 204.65 228.08 203.11 229.29 202.05C230.5 200.99 232.13 200.46 234.17 200.46C236.21 200.46 237.86 201.03 239.06 202.17C240.26 203.31 240.86 204.73 240.86 206.42C240.86 207.28 240.68 208.12 240.33 208.95C239.98 209.78 239.39 210.65 238.58 211.57C237.77 212.49 236.41 213.75 234.52 215.35C232.94 216.68 231.92 217.58 231.47 218.05C231.02 218.52 230.65 219 230.36 219.48H240.89V219.5Z" fill="black"/>
<path d="M251.81 222.03V216.89H242.49V214.47L252.29 200.55H254.44V214.47H257.34V216.89H254.44V222.03H251.8H251.81ZM251.81 214.47V204.79L245.09 214.47H251.81Z" fill="black"/>
<path d="M267.41 214.25C267.41 211.37 268.21 209.24 269.81 207.85C271.15 206.7 272.78 206.12 274.7 206.12C276.84 206.12 278.59 206.82 279.94 208.22C281.29 209.62 281.98 211.56 281.98 214.03C281.98 216.03 281.68 217.61 281.08 218.75C280.48 219.9 279.61 220.79 278.46 221.42C277.31 222.05 276.06 222.37 274.7 222.37C272.52 222.37 270.76 221.67 269.42 220.28C268.08 218.89 267.41 216.87 267.41 214.24V214.25ZM270.12 214.25C270.12 216.24 270.55 217.73 271.42 218.73C272.29 219.73 273.38 220.22 274.7 220.22C276.02 220.22 277.1 219.72 277.97 218.73C278.84 217.74 279.27 216.22 279.27 214.17C279.27 212.25 278.83 210.79 277.96 209.8C277.08 208.81 276 208.31 274.7 208.31C273.4 208.31 272.29 208.8 271.42 209.79C270.55 210.78 270.12 212.27 270.12 214.26V214.25Z" fill="black"/>
<path d="M294.87 216.33L297.46 216.67C297.18 218.46 296.45 219.86 295.29 220.87C294.12 221.88 292.69 222.39 290.99 222.39C288.86 222.39 287.15 221.69 285.86 220.3C284.57 218.91 283.92 216.91 283.92 214.32C283.92 212.64 284.2 211.17 284.75 209.91C285.3 208.65 286.15 207.71 287.29 207.08C288.43 206.45 289.67 206.14 291 206.14C292.69 206.14 294.07 206.57 295.15 207.42C296.23 208.27 296.91 209.49 297.22 211.06L294.66 211.46C294.42 210.42 293.98 209.63 293.36 209.1C292.74 208.57 291.99 208.31 291.11 208.31C289.78 208.31 288.7 208.79 287.87 209.74C287.04 210.69 286.62 212.2 286.62 214.26C286.62 216.32 287.02 217.87 287.82 218.82C288.62 219.77 289.67 220.24 290.95 220.24C291.99 220.24 292.85 219.92 293.54 219.29C294.23 218.66 294.67 217.68 294.86 216.36L294.87 216.33Z" fill="black"/>
<path d="M305.11 219.67L305.49 222C304.75 222.16 304.08 222.23 303.5 222.23C302.54 222.23 301.8 222.08 301.27 221.78C300.74 221.48 300.37 221.08 300.16 220.59C299.95 220.1 299.84 219.06 299.84 217.48V208.53H297.91V206.48H299.84V202.63L302.46 201.05V206.48H305.11V208.53H302.46V217.63C302.46 218.38 302.51 218.87 302.6 219.08C302.69 219.29 302.84 219.47 303.05 219.59C303.26 219.71 303.56 219.78 303.95 219.78C304.24 219.78 304.63 219.75 305.11 219.68V219.67Z" fill="black"/>
<path d="M308.08 222.03V219.03H311.08V222.03H308.08Z" fill="black"/>
<path d="M186.74 511.45V492.51H179.66V489.98H196.68V492.51H189.58V511.45H186.74Z" fill="black"/>
<path d="M198.92 493.01V489.98H201.56V493.01H198.92ZM198.92 511.45V495.89H201.56V511.45H198.92Z" fill="black"/>
<path d="M205.43 511.45V489.98H208.27V500.63L218.93 489.98H222.78L213.77 498.68L223.17 511.45H219.42L211.77 500.58L208.25 504.01V511.45H205.41H205.43Z" fill="black"/>
<path d="M224.48 500.93C224.48 499.9 224.84 499.03 225.57 498.31C226.3 497.59 227.17 497.23 228.19 497.23C229.21 497.23 230.09 497.59 230.82 498.31C231.55 499.03 231.91 499.91 231.91 500.93C231.91 501.95 231.55 502.83 230.82 503.56C230.09 504.29 229.22 504.65 228.19 504.65C227.16 504.65 226.3 504.29 225.57 503.56C224.84 502.83 224.48 501.96 224.48 500.93Z" fill="black"/>
<path d="M240.8 511.45V492.51H233.72V489.98H250.74V492.51H243.64V511.45H240.8Z" fill="black"/>
<path d="M263.12 509.53C262.14 510.36 261.2 510.95 260.3 511.29C259.4 511.63 258.43 511.8 257.39 511.8C255.68 511.8 254.37 511.38 253.45 510.55C252.53 509.72 252.07 508.65 252.07 507.35C252.07 506.59 252.24 505.89 252.59 505.26C252.94 504.63 253.39 504.12 253.95 503.74C254.51 503.36 255.14 503.07 255.85 502.88C256.37 502.74 257.15 502.61 258.19 502.48C260.32 502.23 261.89 501.92 262.89 501.57C262.89 501.21 262.9 500.98 262.9 500.88C262.9 499.81 262.65 499.05 262.15 498.61C261.48 498.01 260.48 497.72 259.15 497.72C257.91 497.72 256.99 497.94 256.4 498.37C255.81 498.8 255.37 499.57 255.09 500.68L252.51 500.33C252.74 499.23 253.13 498.34 253.67 497.66C254.21 496.98 254.98 496.46 256 496.09C257.02 495.72 258.19 495.54 259.53 495.54C260.87 495.54 261.94 495.7 262.77 496.01C263.6 496.32 264.21 496.72 264.6 497.19C264.99 497.66 265.26 498.26 265.42 498.98C265.51 499.43 265.55 500.24 265.55 501.41V504.93C265.55 507.38 265.61 508.93 265.72 509.58C265.83 510.23 266.05 510.85 266.39 511.45H263.64C263.37 510.9 263.19 510.26 263.11 509.53H263.12ZM262.9 503.64C261.94 504.03 260.51 504.36 258.59 504.64C257.51 504.8 256.74 504.97 256.29 505.17C255.84 505.37 255.49 505.65 255.25 506.03C255.01 506.41 254.88 506.82 254.88 507.28C254.88 507.98 255.15 508.57 255.68 509.04C256.21 509.51 256.99 509.74 258.02 509.74C259.05 509.74 259.94 509.52 260.73 509.07C261.52 508.62 262.1 508.02 262.47 507.25C262.75 506.65 262.89 505.78 262.89 504.61V503.64H262.9Z" fill="black"/>
<path d="M269.51 511.45V489.98H272.35V500.63L283.01 489.98H286.86L277.85 498.68L287.25 511.45H283.5L275.85 500.58L272.33 504.01V511.45H269.49H269.51Z" fill="black"/>
<path d="M232.97 403.18C232.25 403.24 231.86 403.29 231.87 403.33C231.87 403.35 231.71 403.38 231.44 403.41C231.2 403.44 230.89 403.48 230.75 403.51C230.04 403.66 229.43 403.82 229 403.95C228.73 404.03 228.39 404.14 228.23 404.19C226.87 404.59 225.2 405.4 223.88 406.29C223.2 406.75 222.17 407.54 221.63 408.04C221 408.61 220.06 409.55 219.71 409.96C218.88 410.92 218.16 411.96 217.69 412.86C217.47 413.29 216.91 414.5 216.75 414.92C216.44 415.71 216.07 417.01 215.91 417.92C215.76 418.73 215.73 419.06 215.73 419.81C215.73 420.56 215.75 420.75 215.81 420.74C215.87 420.72 215.92 420.53 216.04 419.93C216.1 419.62 216.17 419.29 216.18 419.22C216.2 419.11 216.21 419.15 216.19 419.41C216.18 419.59 216.17 420.05 216.17 420.42C216.17 421.16 216.19 421.24 216.3 421.05C216.35 420.97 216.38 420.82 216.43 420.5L216.5 420.06L216.48 420.62C216.48 421 216.48 421.26 216.5 421.45C216.54 421.72 216.54 421.72 216.58 421.63C216.61 421.56 216.68 420.97 216.68 420.8C216.68 420.8 216.7 420.79 216.72 420.79C216.79 420.79 216.91 420.35 217.09 419.36C217.18 418.84 217.3 418.24 217.35 418.03C217.45 417.6 217.58 417.16 217.6 417.18C217.6 417.18 217.6 417.29 217.57 417.42C217.52 417.69 217.52 417.67 217.56 417.67C217.58 417.67 217.59 417.65 217.59 417.62C217.59 417.59 217.6 417.59 217.64 417.65C217.66 417.69 217.7 417.72 217.71 417.71C217.72 417.7 217.78 417.6 217.84 417.5C217.9 417.38 217.94 417.33 217.94 417.36C217.94 417.39 217.95 417.43 217.97 417.45C217.98 417.47 217.98 417.62 217.97 417.8C217.94 418.25 217.98 418.6 218.07 418.6C218.11 418.6 218.19 418.39 218.38 417.82C218.58 417.25 218.59 417.23 218.61 417.3C218.62 417.34 218.65 417.3 218.73 417.14C218.95 416.66 219.56 415.47 219.79 415.08C220.08 414.58 220.24 414.35 221.03 413.29C221.88 412.15 222.25 411.7 222.99 410.93C223.35 410.55 223.42 410.51 223.18 410.8C222.76 411.33 222.56 411.72 222.7 411.72C222.75 411.72 223.06 411.48 223.64 410.99C225.37 409.52 226.54 408.72 228.03 408C229.66 407.21 231.32 406.75 233.27 406.55C233.76 406.5 235.58 406.5 236.07 406.55C237.02 406.65 238 406.83 238.77 407.05C243.79 408.47 247.7 412.22 249.32 417.16C249.67 418.22 249.89 419.33 250.01 420.59C250.06 421.09 250.06 422.58 250.01 423.1C249.83 425.1 249.3 426.97 248.39 428.81C247.19 431.26 245.35 433.35 243.06 434.9C240.49 436.63 237.61 437.52 234.24 437.61C231.57 437.69 229.04 437.1 226.46 435.81C226.05 435.61 226.15 435.7 226.61 435.94C228.51 436.96 230.55 437.57 232.85 437.79C233.37 437.84 235.24 437.84 235.77 437.79C239.73 437.41 243.09 435.85 245.9 433.09C246.2 432.79 246.58 432.4 246.74 432.22C247.14 431.77 247.17 431.74 246.95 432.05C246.9 432.12 246.86 432.2 246.86 432.23C246.86 432.3 246.2 433.04 245.69 433.54C244.56 434.64 243.34 435.54 242.01 436.26C241.29 436.65 239.95 437.15 238.92 437.41C237.66 437.74 236.71 437.87 235.07 437.94C234.66 437.96 234.22 437.98 234.09 438C233.5 438.07 231.81 437.88 230.7 437.62C228.12 437 225.72 435.79 223.63 434.05C223.28 433.76 222.46 432.96 221.92 432.39C221.49 431.94 221.01 431.33 220.61 430.75C220.51 430.6 220.42 430.49 220.41 430.5C220.37 430.54 221.12 431.57 221.6 432.12C221.73 432.27 221.95 432.52 222.07 432.67C222.39 433.04 223.32 433.95 223.74 434.3C225.42 435.7 227.27 436.72 229.32 437.38C229.92 437.58 230.83 437.8 231.4 437.91C231.62 437.95 231.88 437.99 231.95 438.01C232.04 438.02 232.06 438.04 232.02 438.04C231.87 438.04 230.89 437.87 230.31 437.72C229.19 437.44 228.07 437.04 227.05 436.54C224.57 435.32 222.55 433.66 220.95 431.49C220.78 431.26 220.64 431.08 220.63 431.09C220.61 431.1 220.83 431.41 221.15 431.82C222.6 433.68 224.39 435.2 226.41 436.29C228.98 437.67 231.92 438.35 234.94 438.27C235.33 438.27 235.77 438.25 235.9 438.24H236.15L235.89 438.27C235.42 438.34 234.69 438.38 233.89 438.38C232.08 438.38 230.72 438.16 229.17 437.64C227.75 437.16 226.13 436.35 224.91 435.49C221.96 433.42 219.72 430.53 218.59 427.31C218.4 426.77 218.35 426.79 218.53 427.34C219.44 430.09 221.23 432.74 223.52 434.74C223.65 434.85 223.75 434.94 223.75 434.95C223.75 434.95 223.67 434.9 223.58 434.82C222.55 433.96 221.65 433.01 220.85 431.94C220.19 431.07 219.73 430.31 219.1 429.04C218.85 428.55 218.63 428.13 218.61 428.11C218.58 428.08 218.57 428.08 218.57 428.12C218.57 428.19 218.63 428.37 218.73 428.64C218.77 428.75 218.8 428.85 218.79 428.86C218.74 428.94 219.66 430.59 220.24 431.44C221.27 432.97 222.67 434.44 224.19 435.59C224.62 435.91 225.41 436.44 225.88 436.71C226.36 436.99 226.42 437.03 226.08 436.86C225.29 436.45 224.2 435.71 223.37 435.01C222.06 433.92 220.96 432.7 220.04 431.31C219.7 430.81 219.35 430.23 219.38 430.21C219.4 430.19 219.22 429.84 219.15 429.78C219.12 429.75 219.05 429.62 218.99 429.49C218.93 429.36 218.82 429.13 218.74 428.97C218.43 428.39 217.97 427.12 217.72 426.15C217.4 424.9 217.24 423.85 217.18 422.56C217.14 421.71 217.13 421.64 217.13 422.17C217.12 423.44 217.36 425.1 217.78 426.55C218.26 428.21 219 429.84 219.94 431.26C220.09 431.49 220.21 431.69 220.2 431.71C220.17 431.76 220.58 432.33 221.29 433.21C221.34 433.27 221.3 433.25 221.17 433.14C220.95 432.96 220.92 432.98 221.05 433.2L221.14 433.35L221.01 433.2C220.79 432.96 220.22 432.24 219.91 431.82C218.97 430.5 218.16 428.95 217.62 427.46C217.54 427.24 217.46 427.01 217.44 426.96L217.41 426.87V426.97C217.43 427.03 217.51 427.3 217.61 427.58C218.5 430.08 219.93 432.35 221.81 434.23C222.4 434.82 222.72 435.11 223.38 435.64C224.1 436.21 224.45 436.47 225.04 436.86C227.56 438.53 230.37 439.49 233.41 439.7C234.04 439.74 235.32 439.73 235.97 439.68C238.16 439.51 240.32 438.92 242.29 437.96C243.97 437.14 245.68 435.98 246.92 434.82C247.09 434.67 247.23 434.54 247.23 434.54C247.28 434.54 247.12 434.74 246.93 434.92C245.77 436.03 244.06 437.21 242.51 437.95C240.05 439.14 237.5 439.73 234.71 439.77C231.87 439.81 229.17 439.21 226.59 437.98C223.96 436.72 221.69 434.85 219.92 432.5C217.96 429.89 216.77 426.97 216.37 423.78C216.29 423.09 216.22 422.67 216.2 422.66C216.11 422.61 216.15 423.57 216.27 424.37C216.72 427.45 217.95 430.35 219.82 432.79C221.67 435.2 224.15 437.15 226.95 438.38C230.18 439.81 233.6 440.27 237.18 439.75C239.28 439.45 241.56 438.68 243.43 437.62C245.77 436.31 247.65 434.65 249.3 432.45C250.56 430.77 251.58 428.67 252.18 426.53C252.63 424.91 252.83 423.46 252.88 421.41C252.88 421.19 252.88 421.48 252.88 422.05C252.88 422.74 252.86 423.24 252.83 423.54C252.52 426.58 251.62 429.21 250.04 431.73C249.87 432.01 249.73 432.24 249.73 432.25C249.75 432.27 249.94 432.01 250.18 431.65C251.61 429.41 252.52 426.86 252.88 424.13C253.02 423.05 253.07 421.42 252.99 420.44C252.82 418.29 252.36 416.39 251.59 414.61C251.51 414.42 251.4 414.14 251.35 414C250.9 412.66 249.78 410.8 248.56 409.35C248.13 408.84 247.22 407.93 246.74 407.53C245.9 406.84 244.9 406.13 244.31 405.82C243.1 405.2 242.61 404.97 241.83 404.67C241.61 404.59 241.23 404.43 240.97 404.33C239.57 403.76 238 403.39 236.2 403.21C235.53 403.14 233.68 403.13 233.01 403.18H232.97ZM227.75 404.64C225.75 405.43 223.8 406.61 222.25 407.94C221.84 408.3 221.08 409.03 220.68 409.47C220.41 409.76 220.42 409.74 220.71 409.38C221.47 408.44 222.95 407.2 224.37 406.3C225.36 405.68 226.7 404.99 227.52 404.68C227.78 404.58 227.97 404.54 227.75 404.63V404.64ZM225.38 406.32C225.38 406.32 225.23 406.43 225.08 406.52C223.95 407.2 222.58 408.29 221.72 409.2C221.41 409.53 220.52 410.39 220.64 410.24C220.68 410.18 220.9 409.95 221.11 409.72C222.25 408.48 223.57 407.39 225.04 406.49C225.23 406.37 225.4 406.28 225.4 406.28C225.4 406.28 225.4 406.3 225.38 406.32V406.32ZM219.05 412.3C219.05 412.3 219 412.4 218.93 412.5C218.78 412.74 218.53 413.24 218.32 413.71C218.23 413.91 218.13 414.1 218.1 414.14C217.99 414.26 217.34 415.75 217.16 416.32C217.1 416.52 217.04 416.62 217.04 416.55C217.04 416.44 217.45 415.32 217.7 414.75C217.99 414.07 218.47 413.17 218.93 412.43C219 412.31 219.06 412.26 219.06 412.31L219.05 412.3ZM217.78 415.08C217.54 415.65 217.14 416.84 217 417.42C216.89 417.86 216.76 418.57 216.66 419.25C216.63 419.46 216.59 419.66 216.58 419.67C216.57 419.69 216.55 419.73 216.54 419.76C216.51 419.88 216.55 419.48 216.65 418.84C216.76 418.13 216.89 417.53 217.13 416.77C217.35 416.05 217.86 414.7 217.88 414.78C217.88 414.8 217.84 414.93 217.78 415.07V415.08ZM216.21 419.03C216.21 419.03 216.19 419.04 216.19 419.01C216.19 418.98 216.19 418.96 216.2 418.97C216.2 418.97 216.21 419 216.2 419.03H216.21ZM216.58 420.07C216.57 420.14 216.55 420.19 216.55 420.17C216.55 420.15 216.55 420.06 216.55 419.97C216.56 419.87 216.58 419.83 216.58 419.87C216.58 419.91 216.58 420 216.58 420.07ZM222.94 434.74C224.68 436.26 226.7 437.42 228.9 438.15C229.93 438.49 231.11 438.75 232.32 438.91C232.73 438.96 232.89 438.99 233.23 439.08C233.4 439.12 232.99 439.1 232.38 439.02C228.45 438.54 224.84 436.78 222.15 434.03L221.8 433.67L222.2 434.05C222.42 434.26 222.75 434.57 222.94 434.74V434.74ZM232.2 438.05C232.2 438.05 232.14 438.05 232.11 438.05C232.08 438.05 232.1 438.04 232.14 438.04C232.19 438.04 232.21 438.04 232.19 438.05H232.2Z" fill="black"/>
<path d="M249.19 432.95C247.94 434.54 246.51 435.86 244.83 436.97C242.5 438.51 239.9 439.5 237.21 439.87C236.63 439.95 236.55 439.97 236.59 439.98C236.65 440 237.55 439.88 238.13 439.77C240.9 439.24 243.49 438.09 245.77 436.37C246.79 435.61 247.74 434.72 248.58 433.77C248.95 433.34 249.38 432.79 249.36 432.77C249.36 432.77 249.28 432.85 249.19 432.95V432.95Z" fill="black"/>
<path d="M324.46 398.96C325.15 398.96 325.85 398.96 326.54 398.96C327.16 399.05 327.78 399.12 328.39 399.22C335.28 400.41 341.01 406.14 342.19 413.02C342.3 413.66 342.37 414.3 342.46 414.94V417.02C342.44 417.1 342.42 417.17 342.41 417.25C342.29 418.06 342.23 418.88 342.05 419.67C341.05 424.13 338.76 427.81 334.94 430.35C329.47 433.99 323.66 434.32 317.69 431.62C315.05 430.42 312.55 430.8 310.49 432.84C310.04 433.29 309.52 433.49 308.91 433.24C308.3 432.98 308.07 432.49 308.08 431.84C308.08 426.67 308.07 421.5 308.1 416.34C308.1 415.22 308.19 414.08 308.39 412.97C309.74 405.54 315.69 400.45 322.45 399.25C323.12 399.13 323.8 399.07 324.47 398.98L324.46 398.96ZM310.76 429.25C310.86 429.21 310.9 429.19 310.94 429.17C313.55 427.9 316.17 427.89 318.78 429.17C320.45 429.98 322.2 430.48 324.05 430.6C328.87 430.91 332.96 429.35 336.11 425.66C339.2 422.04 340.39 417.81 339.46 413.12C337.89 405.21 329.91 400.18 322.06 402.03C315.83 403.5 310.72 408.89 310.75 416.29C310.77 420.5 310.75 424.7 310.75 428.91C310.75 429.01 310.75 429.11 310.75 429.25H310.76Z" fill="black"/>
<path d="M329.43 416.13C329.43 415.22 330.18 414.47 331.1 414.47C332.01 414.47 332.78 415.21 332.78 416.12C332.78 417.08 332.04 417.83 331.09 417.82C330.15 417.82 329.43 417.08 329.42 416.13H329.43Z" fill="black"/>
<path d="M323.66 416.13C323.66 415.23 324.42 414.47 325.33 414.47C326.24 414.47 327.01 415.21 327.01 416.12C327.01 417.08 326.27 417.83 325.32 417.82C324.38 417.82 323.65 417.08 323.65 416.13H323.66Z" fill="black"/>
<path d="M317.89 416.16C317.89 415.22 318.6 414.48 319.56 414.47C320.46 414.46 321.23 415.21 321.24 416.12C321.26 417.05 320.5 417.83 319.59 417.83C318.64 417.83 317.9 417.11 317.9 416.17L317.89 416.16Z" fill="black"/>
<path d="M131.78 413.2C131.99 412.65 132.41 412.43 132.98 412.34C136.64 411.81 140.29 411.25 143.95 410.73C144.47 410.66 144.76 410.46 145 409.98C146.61 406.64 148.25 403.31 149.88 399.98C150.07 399.6 150.29 399.26 150.74 399.17C151.29 399.07 151.69 399.3 151.99 399.9C152.84 401.6 153.68 403.3 154.53 405C155.4 406.76 156.28 408.51 157.14 410.27C157.25 410.5 157.4 410.6 157.64 410.63C160.52 411.03 163.4 411.45 166.29 411.85C167.22 411.98 168.15 412.11 169.07 412.24C169.56 412.31 169.96 412.49 170.13 413C170.31 413.51 170.07 413.89 169.72 414.23C166.98 416.92 164.24 419.61 161.49 422.29C161.27 422.5 161.22 422.7 161.27 422.98C161.94 426.76 162.6 430.53 163.26 434.31C163.34 434.78 163.3 435.22 162.89 435.53C162.47 435.85 162.03 435.78 161.59 435.55C158.18 433.77 154.77 431.99 151.37 430.2C151.12 430.07 150.94 430.08 150.69 430.2C147.31 432 143.92 433.79 140.53 435.59C140.2 435.77 139.86 435.88 139.49 435.75C138.98 435.57 138.71 435.1 138.8 434.53C139.12 432.61 139.44 430.69 139.77 428.77C140.1 426.81 140.44 424.86 140.75 422.89C140.77 422.74 140.66 422.51 140.53 422.39C137.85 419.78 135.17 417.18 132.49 414.57C132.23 414.31 132.01 414.01 131.77 413.72C131.77 413.54 131.77 413.37 131.77 413.19L131.78 413.2ZM135.23 414.16C135.23 414.16 135.19 414.23 135.17 414.27C135.27 414.34 135.38 414.41 135.47 414.5C137.81 416.77 140.15 419.05 142.5 421.31C142.9 421.7 143.05 422.11 142.95 422.65C142.53 425.09 142.12 427.53 141.71 429.97C141.56 430.89 141.4 431.81 141.24 432.78C141.42 432.69 141.54 432.63 141.66 432.57C144.52 431.06 147.38 429.55 150.23 428.02C150.77 427.73 151.24 427.72 151.78 428.01C154.65 429.53 157.53 431.02 160.41 432.53C160.53 432.59 160.65 432.65 160.81 432.73C160.79 432.56 160.77 432.45 160.75 432.34C160.19 429.09 159.63 425.84 159.05 422.6C158.95 422.04 159.11 421.64 159.5 421.26C161.84 418.98 164.17 416.7 166.5 414.41C166.59 414.32 166.68 414.23 166.8 414.1C166.65 414.07 166.56 414.04 166.48 414.03C163.24 413.57 160 413.1 156.76 412.66C156.13 412.57 155.74 412.27 155.45 411.7C154.03 408.8 152.58 405.9 151.13 403.01C151.07 402.89 151.01 402.78 150.93 402.63C150.85 402.79 150.79 402.9 150.74 403.01C149.29 405.96 147.85 408.91 146.41 411.86C146.19 412.32 145.87 412.59 145.36 412.66C142.94 413.01 140.51 413.37 138.09 413.73C137.13 413.87 136.17 414.02 135.2 414.16H135.23Z" fill="black"/>
</g>
<defs>
<clipPath id="clip0_23_208">
<rect width="476.36" height="710.97" fill="white"/>
</clipPath>
</defs>
</svg>
