<svg width="1920" height="644" viewBox="0 0 1920 644" fill="none" xmlns="http://www.w3.org/2000/svg">
<path d="M114.377 822.488C339.315 748.443 390.348 57.3483 734.304 40.1724C1078.27 22.9966 1044.27 156.675 1354.25 156.675C1664.21 156.675 1816.98 40.5885 1974.17 40.1724" stroke="#7A003F" stroke-width="2"/>
<path d="M1127.72 925.344C1288.13 911.996 1364.47 584.041 1681.22 560.923C1997.99 537.806 2078.34 244.618 2234.74 234.715" stroke="#7A003F" stroke-width="2"/>
<path d="M276.68 885.533C565.601 853.911 754.043 172.353 1243.56 171.288C1733.08 170.223 1954.61 538.838 2210.44 544.097" stroke="#7A003F" stroke-width="2"/>
<path d="M-38.6935 793.078C145.702 788.784 306.057 513.588 654.688 513.355C1003.34 513.122 1001.39 629.857 1348.09 629.857C1694.77 629.857 1866.15 513.687 2041.47 513.355" stroke="#F50F00" stroke-width="2"/>
<path d="M73 836.469C293.45 788.957 377.684 205.832 729 196.922C1080.32 188.013 1057 313.497 1385 313.497C1713 313.497 1874.61 197.339 2041 196.922" stroke="#F50F00" stroke-width="2"/>
<path d="M177.791 772.423C400.675 700.541 453.462 18.833 795.034 2.40606C1136.61 -14.0208 1103.66 118.909 1412.28 118.909C1720.91 118.909 1873 2.82215 2029.52 2.40606" stroke="#F0C300" stroke-width="2"/>
<path d="M114 885.469C383.441 881.258 602.075 538.759 1141.5 530.041C1680.92 521.323 1899 170.977 2169 166.469" stroke="#F0C300" stroke-width="2"/>
<path d="M-277 823.469C63.9563 798.342 307.266 126.219 902.5 125.47C1497.73 124.722 1773.03 493.889 2082 498.216" stroke="#F0C300" stroke-width="2"/>
</svg>
