<svg width="381" height="711" viewBox="0 0 381 711" fill="none" xmlns="http://www.w3.org/2000/svg">
<g clip-path="url(#clip0_23_164)">
<path d="M91.24 27.79C91.24 27.79 143.41 7.5 189.79 8.95C236.17 10.4 285.44 24.89 285.44 24.89C285.44 24.89 256.45 295.9 259.35 374.17C262.25 452.44 286.89 681.42 286.89 681.42C286.89 681.42 239.06 703.16 194.14 700.26C149.22 697.36 97.04 682.87 97.04 682.87C97.04 682.87 120.92 443.74 120.92 349.54C120.92 255.34 91.24 27.79 91.24 27.79Z" fill="white" stroke="black" stroke-width="0.5" stroke-miterlimit="10"/>
<path d="M50.6599 153.87C50.6599 153.87 89.7899 81.41 85.4399 27.79C85.4399 27.79 102.83 0.25 188.34 0.25C273.85 0.25 298.48 19.09 298.48 19.09C298.48 19.09 313.28 129.23 333.57 149.52C333.57 149.52 237.61 168.36 185.44 168.36C133.27 168.36 50.6599 153.87 50.6599 153.87V153.87Z" fill="white" stroke="black" stroke-width="0.5" stroke-miterlimit="10"/>
<path d="M335.97 562.21C335.97 562.21 294.11 633.13 296.41 686.88C296.41 686.88 277.98 713.73 192.54 710.47C107.09 707.21 83.1899 687.45 83.1899 687.45C83.1899 687.45 72.5999 576.82 53.0999 555.77C53.0999 555.77 149.7 540.6 201.84 542.59C253.98 544.58 335.97 562.21 335.97 562.21Z" fill="white" stroke="black" stroke-width="0.5" stroke-miterlimit="10"/>
<path d="M299.36 130.63H81.05C36.4254 130.63 0.25 166.805 0.25 211.43V503.45C0.25 548.075 36.4254 584.25 81.05 584.25H299.36C343.985 584.25 380.16 548.075 380.16 503.45V211.43C380.16 166.805 343.985 130.63 299.36 130.63Z" fill="white" stroke="black" stroke-width="0.5" stroke-miterlimit="10"/>
<path d="M288.72 156.05H91.69C51.8316 156.05 19.52 188.362 19.52 228.22V486.66C19.52 526.518 51.8316 558.83 91.69 558.83H288.72C328.578 558.83 360.89 526.518 360.89 486.66V228.22C360.89 188.362 328.578 156.05 288.72 156.05Z" fill="white" stroke="black" stroke-width="0.5" stroke-miterlimit="10"/>
<path d="M276.77 172.53H103.64C67.6254 172.53 38.4299 201.726 38.4299 237.74V477.15C38.4299 513.164 67.6254 542.36 103.64 542.36H276.77C312.784 542.36 341.98 513.164 341.98 477.15V237.74C341.98 201.726 312.784 172.53 276.77 172.53Z" fill="white" stroke="black" stroke-width="0.5" stroke-miterlimit="10"/>
<path d="M283.92 404.12C284.61 404.12 285.31 404.12 286 404.12C286.62 404.21 287.24 404.28 287.85 404.38C294.74 405.57 300.47 411.3 301.65 418.18C301.76 418.82 301.83 419.46 301.92 420.1V422.18C301.9 422.26 301.88 422.33 301.87 422.41C301.75 423.22 301.69 424.04 301.51 424.83C300.51 429.29 298.22 432.97 294.4 435.51C288.93 439.15 283.12 439.48 277.15 436.78C274.51 435.58 272.01 435.96 269.95 438C269.5 438.45 268.98 438.65 268.37 438.4C267.76 438.14 267.53 437.65 267.54 437C267.54 431.83 267.53 426.66 267.56 421.5C267.56 420.38 267.65 419.24 267.85 418.13C269.2 410.7 275.15 405.61 281.91 404.41C282.58 404.29 283.26 404.23 283.93 404.14L283.92 404.12ZM270.22 434.41C270.32 434.37 270.36 434.35 270.4 434.33C273.01 433.06 275.63 433.05 278.24 434.33C279.91 435.14 281.66 435.64 283.51 435.76C288.33 436.07 292.42 434.51 295.57 430.82C298.66 427.2 299.85 422.97 298.92 418.28C297.35 410.37 289.37 405.34 281.52 407.19C275.29 408.66 270.18 414.05 270.21 421.45C270.23 425.66 270.21 429.86 270.21 434.07C270.21 434.17 270.21 434.27 270.21 434.41H270.22Z" fill="black"/>
<path d="M288.89 421.29C288.89 420.38 289.64 419.63 290.56 419.63C291.47 419.63 292.24 420.37 292.24 421.28C292.24 422.24 291.5 422.99 290.55 422.98C289.61 422.98 288.89 422.24 288.88 421.29H288.89Z" fill="black"/>
<path d="M283.11 421.29C283.11 420.39 283.87 419.63 284.78 419.63C285.69 419.63 286.46 420.37 286.46 421.28C286.46 422.24 285.72 422.99 284.77 422.98C283.83 422.98 283.1 422.24 283.1 421.29H283.11Z" fill="black"/>
<path d="M277.34 421.32C277.34 420.38 278.05 419.64 279.01 419.63C279.91 419.62 280.68 420.37 280.69 421.28C280.71 422.21 279.95 422.99 279.04 422.99C278.09 422.99 277.35 422.27 277.35 421.33L277.34 421.32Z" fill="black"/>
<path d="M91.24 418.37C91.45 417.82 91.87 417.6 92.44 417.51C96.1 416.98 99.75 416.42 103.41 415.9C103.93 415.83 104.22 415.63 104.46 415.15C106.07 411.81 107.71 408.48 109.34 405.15C109.53 404.77 109.75 404.43 110.2 404.34C110.75 404.24 111.15 404.47 111.45 405.07C112.3 406.77 113.14 408.47 113.99 410.17C114.86 411.93 115.74 413.68 116.6 415.44C116.71 415.67 116.86 415.77 117.1 415.8C119.98 416.2 122.86 416.62 125.75 417.02C126.68 417.15 127.61 417.28 128.53 417.41C129.02 417.48 129.42 417.66 129.59 418.17C129.77 418.68 129.53 419.06 129.18 419.4C126.44 422.09 123.7 424.78 120.95 427.46C120.73 427.67 120.68 427.87 120.73 428.15C121.4 431.93 122.06 435.7 122.72 439.48C122.8 439.95 122.76 440.39 122.35 440.7C121.93 441.02 121.49 440.95 121.05 440.72C117.64 438.94 114.23 437.16 110.83 435.37C110.58 435.24 110.4 435.25 110.15 435.37C106.77 437.17 103.38 438.96 99.99 440.76C99.66 440.94 99.32 441.05 98.95 440.92C98.44 440.74 98.17 440.27 98.26 439.7C98.58 437.78 98.9 435.86 99.23 433.94C99.56 431.98 99.9 430.03 100.21 428.06C100.23 427.91 100.12 427.68 99.99 427.56C97.31 424.95 94.63 422.35 91.95 419.74C91.69 419.48 91.47 419.18 91.23 418.89C91.23 418.71 91.23 418.54 91.23 418.36L91.24 418.37ZM94.69 419.33C94.69 419.33 94.65 419.4 94.63 419.44C94.73 419.51 94.84 419.58 94.93 419.67C97.27 421.94 99.61 424.22 101.96 426.48C102.36 426.87 102.51 427.28 102.41 427.82C101.99 430.26 101.58 432.7 101.17 435.14C101.02 436.06 100.86 436.98 100.7 437.95C100.88 437.86 101 437.8 101.12 437.74C103.98 436.23 106.84 434.72 109.69 433.19C110.23 432.9 110.7 432.89 111.24 433.18C114.11 434.7 116.99 436.19 119.87 437.7C119.99 437.76 120.11 437.82 120.27 437.9C120.25 437.73 120.23 437.62 120.21 437.51C119.65 434.26 119.09 431.01 118.51 427.77C118.41 427.21 118.57 426.81 118.96 426.43C121.3 424.15 123.63 421.87 125.96 419.58C126.05 419.49 126.14 419.4 126.26 419.27C126.11 419.24 126.02 419.21 125.94 419.2C122.7 418.74 119.46 418.27 116.22 417.83C115.59 417.74 115.2 417.44 114.91 416.87C113.49 413.97 112.04 411.07 110.59 408.18C110.53 408.06 110.47 407.95 110.39 407.8C110.31 407.96 110.25 408.07 110.2 408.18C108.75 411.13 107.31 414.08 105.87 417.03C105.65 417.49 105.33 417.76 104.82 417.83C102.4 418.18 99.97 418.54 97.55 418.9C96.59 419.04 95.63 419.19 94.66 419.33H94.69Z" fill="black"/>
<path d="M190.73 402.97C190.01 403.03 189.62 403.08 189.63 403.12C189.63 403.14 189.47 403.17 189.2 403.2C188.96 403.23 188.65 403.27 188.51 403.3C187.8 403.45 187.19 403.61 186.76 403.74C186.49 403.82 186.15 403.93 185.99 403.98C184.63 404.38 182.96 405.19 181.64 406.08C180.96 406.54 179.93 407.33 179.39 407.83C178.76 408.4 177.82 409.34 177.47 409.75C176.64 410.71 175.92 411.75 175.45 412.65C175.23 413.08 174.67 414.29 174.51 414.71C174.2 415.5 173.83 416.8 173.67 417.71C173.52 418.52 173.49 418.85 173.49 419.6C173.49 420.35 173.51 420.54 173.57 420.53C173.63 420.51 173.68 420.32 173.8 419.72C173.86 419.41 173.93 419.08 173.94 419.01C173.96 418.9 173.97 418.94 173.95 419.2C173.94 419.38 173.93 419.84 173.93 420.21C173.93 420.95 173.95 421.03 174.06 420.84C174.11 420.76 174.14 420.61 174.19 420.29L174.26 419.85L174.24 420.41C174.24 420.79 174.24 421.05 174.26 421.24C174.3 421.51 174.3 421.51 174.34 421.42C174.37 421.35 174.44 420.76 174.44 420.59C174.44 420.59 174.46 420.58 174.48 420.58C174.55 420.58 174.67 420.14 174.85 419.15C174.94 418.63 175.06 418.03 175.11 417.82C175.21 417.39 175.34 416.95 175.36 416.97C175.36 416.97 175.36 417.08 175.33 417.21C175.28 417.48 175.28 417.46 175.32 417.46C175.34 417.46 175.35 417.44 175.35 417.41C175.35 417.38 175.36 417.38 175.4 417.44C175.42 417.48 175.46 417.51 175.47 417.5C175.48 417.49 175.54 417.39 175.6 417.29C175.66 417.17 175.7 417.12 175.7 417.15C175.7 417.18 175.71 417.22 175.73 417.24C175.74 417.26 175.74 417.41 175.73 417.59C175.7 418.04 175.74 418.39 175.83 418.39C175.87 418.39 175.95 418.18 176.14 417.61C176.34 417.04 176.35 417.02 176.37 417.09C176.38 417.13 176.41 417.09 176.49 416.93C176.71 416.45 177.32 415.26 177.55 414.87C177.84 414.37 178 414.14 178.79 413.08C179.64 411.94 180.01 411.49 180.75 410.72C181.11 410.34 181.18 410.3 180.94 410.59C180.52 411.12 180.32 411.51 180.46 411.51C180.51 411.51 180.82 411.27 181.4 410.78C183.13 409.31 184.3 408.51 185.79 407.79C187.42 407 189.08 406.54 191.03 406.34C191.52 406.29 193.34 406.29 193.83 406.34C194.78 406.44 195.76 406.62 196.53 406.84C201.55 408.26 205.46 412.01 207.08 416.95C207.43 418.01 207.65 419.12 207.77 420.38C207.82 420.88 207.82 422.37 207.77 422.89C207.59 424.89 207.06 426.76 206.15 428.6C204.95 431.05 203.11 433.14 200.82 434.69C198.25 436.42 195.37 437.31 192 437.4C189.33 437.48 186.8 436.89 184.22 435.6C183.81 435.4 183.91 435.49 184.37 435.73C186.27 436.75 188.31 437.36 190.61 437.58C191.13 437.63 193 437.63 193.53 437.58C197.49 437.2 200.85 435.64 203.66 432.88C203.96 432.58 204.34 432.19 204.5 432.01C204.9 431.56 204.93 431.53 204.71 431.84C204.66 431.91 204.62 431.99 204.62 432.02C204.62 432.09 203.96 432.83 203.45 433.33C202.32 434.43 201.1 435.33 199.77 436.05C199.05 436.44 197.71 436.94 196.68 437.2C195.42 437.53 194.47 437.66 192.83 437.73C192.42 437.75 191.98 437.77 191.85 437.79C191.26 437.86 189.57 437.67 188.46 437.41C185.88 436.79 183.48 435.58 181.39 433.84C181.04 433.55 180.22 432.75 179.68 432.18C179.25 431.73 178.77 431.12 178.37 430.54C178.27 430.39 178.18 430.28 178.17 430.29C178.13 430.33 178.88 431.36 179.36 431.91C179.49 432.06 179.71 432.31 179.83 432.46C180.15 432.83 181.08 433.74 181.5 434.09C183.18 435.49 185.03 436.51 187.08 437.17C187.68 437.37 188.59 437.59 189.16 437.7C189.38 437.74 189.64 437.78 189.71 437.8C189.8 437.81 189.82 437.83 189.78 437.83C189.63 437.83 188.65 437.66 188.07 437.51C186.95 437.23 185.83 436.83 184.81 436.33C182.33 435.11 180.31 433.45 178.71 431.28C178.54 431.05 178.4 430.87 178.39 430.88C178.37 430.89 178.59 431.2 178.91 431.61C180.36 433.47 182.15 434.99 184.17 436.08C186.74 437.46 189.68 438.14 192.7 438.06C193.09 438.06 193.53 438.04 193.66 438.03H193.91L193.65 438.06C193.18 438.13 192.45 438.17 191.65 438.17C189.84 438.17 188.48 437.95 186.93 437.43C185.51 436.95 183.89 436.14 182.67 435.28C179.72 433.21 177.48 430.32 176.35 427.1C176.16 426.56 176.11 426.58 176.29 427.13C177.2 429.88 178.99 432.53 181.28 434.53C181.41 434.64 181.51 434.73 181.51 434.74C181.51 434.74 181.43 434.69 181.34 434.61C180.31 433.75 179.41 432.8 178.61 431.73C177.95 430.86 177.49 430.1 176.86 428.83C176.61 428.34 176.39 427.92 176.37 427.9C176.34 427.87 176.33 427.87 176.33 427.91C176.33 427.98 176.39 428.16 176.49 428.43C176.53 428.54 176.56 428.64 176.55 428.65C176.5 428.73 177.42 430.38 178 431.23C179.03 432.76 180.43 434.23 181.95 435.38C182.38 435.7 183.17 436.23 183.64 436.5C184.12 436.78 184.18 436.82 183.84 436.65C183.05 436.24 181.96 435.5 181.13 434.8C179.82 433.71 178.72 432.49 177.8 431.1C177.46 430.6 177.11 430.02 177.14 430C177.16 429.98 176.98 429.63 176.91 429.57C176.88 429.54 176.81 429.41 176.75 429.28C176.69 429.15 176.58 428.92 176.5 428.76C176.19 428.18 175.73 426.91 175.48 425.94C175.16 424.69 175 423.64 174.94 422.35C174.9 421.5 174.89 421.43 174.89 421.96C174.88 423.23 175.12 424.89 175.54 426.34C176.02 428 176.76 429.63 177.7 431.05C177.85 431.28 177.97 431.48 177.96 431.5C177.93 431.55 178.34 432.12 179.05 433C179.1 433.06 179.06 433.04 178.93 432.93C178.71 432.75 178.68 432.77 178.81 432.99L178.9 433.14L178.77 432.99C178.55 432.75 177.98 432.03 177.67 431.61C176.73 430.29 175.92 428.74 175.38 427.25C175.3 427.03 175.22 426.8 175.2 426.75L175.17 426.66V426.76C175.19 426.82 175.27 427.09 175.37 427.37C176.26 429.87 177.69 432.14 179.57 434.02C180.16 434.61 180.48 434.9 181.14 435.43C181.86 436 182.21 436.26 182.8 436.65C185.32 438.32 188.13 439.28 191.17 439.49C191.8 439.53 193.08 439.52 193.73 439.47C195.92 439.3 198.08 438.71 200.05 437.75C201.73 436.93 203.44 435.77 204.68 434.61C204.85 434.46 204.99 434.33 204.99 434.33C205.04 434.33 204.88 434.53 204.69 434.71C203.53 435.82 201.82 437 200.27 437.74C197.81 438.93 195.26 439.52 192.47 439.56C189.63 439.6 186.93 439 184.35 437.77C181.72 436.51 179.45 434.64 177.68 432.29C175.72 429.68 174.53 426.76 174.13 423.57C174.05 422.88 173.98 422.46 173.96 422.45C173.87 422.4 173.91 423.36 174.03 424.16C174.48 427.24 175.71 430.14 177.58 432.58C179.43 434.99 181.91 436.94 184.71 438.17C187.94 439.6 191.36 440.06 194.94 439.54C197.04 439.24 199.32 438.47 201.19 437.41C203.53 436.1 205.41 434.44 207.06 432.24C208.32 430.56 209.34 428.46 209.94 426.32C210.39 424.7 210.59 423.25 210.64 421.2C210.64 420.98 210.64 421.27 210.64 421.84C210.64 422.53 210.62 423.03 210.59 423.33C210.28 426.37 209.38 429 207.8 431.52C207.63 431.8 207.49 432.03 207.49 432.04C207.51 432.06 207.7 431.8 207.94 431.44C209.37 429.2 210.28 426.65 210.64 423.92C210.78 422.84 210.83 421.21 210.75 420.23C210.58 418.08 210.12 416.18 209.35 414.4C209.27 414.21 209.16 413.93 209.11 413.79C208.66 412.45 207.54 410.59 206.32 409.14C205.89 408.63 204.98 407.72 204.5 407.32C203.66 406.63 202.66 405.92 202.07 405.61C200.86 404.99 200.37 404.76 199.59 404.46C199.37 404.38 198.99 404.22 198.73 404.12C197.33 403.55 195.76 403.18 193.96 403C193.29 402.93 191.44 402.92 190.77 402.97H190.73ZM185.51 404.43C183.51 405.22 181.56 406.4 180.01 407.73C179.6 408.09 178.84 408.82 178.44 409.26C178.17 409.55 178.18 409.53 178.47 409.17C179.23 408.23 180.71 406.99 182.13 406.09C183.12 405.47 184.46 404.78 185.28 404.47C185.54 404.37 185.73 404.33 185.51 404.42V404.43ZM183.14 406.11C183.14 406.11 182.99 406.22 182.84 406.31C181.71 406.99 180.34 408.08 179.48 408.99C179.17 409.32 178.28 410.18 178.4 410.03C178.44 409.97 178.66 409.74 178.87 409.51C180.01 408.27 181.33 407.18 182.8 406.28C182.99 406.16 183.16 406.07 183.16 406.07C183.16 406.07 183.16 406.09 183.14 406.11V406.11ZM176.81 412.09C176.81 412.09 176.76 412.19 176.69 412.29C176.54 412.53 176.29 413.03 176.08 413.5C175.99 413.7 175.89 413.89 175.86 413.93C175.75 414.05 175.1 415.54 174.92 416.11C174.86 416.31 174.8 416.41 174.8 416.34C174.8 416.23 175.21 415.11 175.46 414.54C175.75 413.86 176.23 412.96 176.69 412.22C176.76 412.1 176.82 412.05 176.82 412.1L176.81 412.09ZM175.54 414.87C175.3 415.44 174.9 416.63 174.76 417.21C174.65 417.65 174.52 418.36 174.42 419.04C174.39 419.25 174.35 419.45 174.34 419.46C174.33 419.48 174.31 419.52 174.3 419.55C174.27 419.67 174.31 419.27 174.41 418.63C174.52 417.92 174.65 417.32 174.89 416.56C175.11 415.84 175.62 414.49 175.64 414.57C175.64 414.59 175.6 414.72 175.54 414.86V414.87ZM173.97 418.82C173.97 418.82 173.95 418.83 173.95 418.8C173.95 418.77 173.95 418.75 173.96 418.76C173.96 418.76 173.97 418.79 173.96 418.82H173.97ZM174.34 419.86C174.33 419.93 174.31 419.98 174.31 419.96C174.31 419.94 174.31 419.85 174.31 419.76C174.32 419.66 174.34 419.62 174.34 419.66C174.34 419.7 174.34 419.79 174.34 419.86ZM180.7 434.53C182.44 436.05 184.46 437.21 186.66 437.94C187.69 438.28 188.87 438.54 190.08 438.7C190.49 438.75 190.65 438.78 190.99 438.87C191.16 438.91 190.75 438.89 190.14 438.81C186.21 438.33 182.6 436.57 179.91 433.82L179.56 433.46L179.96 433.84C180.18 434.05 180.51 434.36 180.7 434.53V434.53ZM189.96 437.84C189.96 437.84 189.9 437.84 189.87 437.84C189.84 437.84 189.86 437.83 189.9 437.83C189.95 437.83 189.97 437.83 189.95 437.84H189.96Z" fill="black"/>
<path d="M206.95 432.74C205.7 434.33 204.27 435.65 202.59 436.76C200.26 438.3 197.66 439.29 194.97 439.66C194.39 439.74 194.31 439.76 194.35 439.77C194.41 439.79 195.31 439.67 195.89 439.56C198.66 439.03 201.25 437.88 203.53 436.16C204.55 435.4 205.5 434.51 206.34 433.56C206.71 433.13 207.14 432.58 207.12 432.56C207.12 432.56 207.04 432.64 206.95 432.74V432.74Z" fill="black"/>
<path d="M71.2699 244.6H90.7899C92.8599 244.6 94.7899 245.54 96.5799 247.42C97.7899 248.98 98.3999 250.58 98.3999 252.21V310.06C98.3999 312.17 97.4399 314.1 95.5299 315.85C93.9699 317.06 92.3899 317.67 90.7899 317.67H80.5499C78.6699 317.67 76.9099 316.92 75.2899 315.42C73.6899 313.79 72.8999 311.88 72.8999 309.68V270.06H71.7499C68.5299 270.06 66.0899 268.56 64.4299 265.56C63.9199 264.44 63.6599 263.41 63.6599 262.45V252.21C63.6599 250.1 64.5999 248.17 66.4799 246.42C68.0699 245.21 69.6699 244.6 71.2699 244.6V244.6ZM66.4799 253.17V261.45C66.4799 263.49 67.0399 264.96 68.1499 265.85C69.1099 266.74 70.2899 267.19 71.6899 267.19H74.7499C75.2899 267.19 75.6299 267.56 75.7499 268.29V309.68C75.7499 311.91 76.8799 313.54 79.1499 314.56C79.7199 314.75 80.4899 314.85 81.4499 314.85H89.7799C91.5699 314.85 92.8899 314.44 93.7499 313.61C94.5499 312.97 95.1099 312.02 95.4199 310.74C95.4799 310.39 95.5199 309.85 95.5199 309.11V253.17C95.5199 251.38 95.0999 250.06 94.2799 249.2C93.6699 248.43 92.7599 247.88 91.5499 247.53C91.0399 247.47 90.4499 247.43 89.7799 247.43H72.2199C70.4699 247.43 69.1399 247.85 68.2499 248.67C67.4799 249.28 66.9399 250.19 66.6199 251.4C66.5199 251.94 66.4799 252.53 66.4799 253.17V253.17ZM90.5999 251.11C91.0799 251.11 91.4799 251.41 91.7999 252.02C91.8599 252.12 91.8999 252.26 91.8999 252.45V309.78C91.8999 310.45 91.5199 310.91 90.7499 311.17H80.6999C79.8399 310.98 79.4099 310.47 79.4099 309.64V263.56H71.8499C71.0199 263.56 70.4899 263.24 70.2699 262.6C70.2099 262.5 70.1699 262.39 70.1699 262.27V252.46C70.1699 251.82 70.5499 251.38 71.3199 251.12H90.5999V251.11Z" fill="black"/>
<path d="M137.88 244.6H139.03C144.87 244.6 150.63 246.13 156.3 249.19C158.21 250.21 160.56 251.93 163.33 254.36C165.82 256.82 167.3 258.48 167.78 259.34C169.28 261.32 170.46 263.23 171.32 265.08C173.81 270.28 175.05 275.46 175.05 280.63V281.78C175.05 287.62 173.52 293.38 170.46 299.05C169.44 300.96 167.72 303.31 165.29 306.08C162.9 308.54 161.03 310.2 159.69 311.06C157.81 312.37 155.85 313.5 153.8 314.46C148.79 316.69 143.86 317.81 139.01 317.81H137.86C132.02 317.81 126.26 316.28 120.59 313.22C118.68 312.2 116.33 310.48 113.56 308.05C111.1 305.66 109.44 303.79 108.58 302.45C107.27 300.57 106.14 298.61 105.18 296.56C102.95 291.55 101.83 286.62 101.83 281.77V280.62C101.83 274.78 103.36 269.02 106.42 263.35C107.44 261.44 109.16 259.09 111.59 256.32C113.98 253.86 115.85 252.2 117.19 251.34C119.07 250.03 121.03 248.9 123.08 247.94C128.09 245.71 133.02 244.59 137.87 244.59L137.88 244.6ZM104.81 281.21C104.81 289.19 107.47 296.41 112.8 302.89C114.62 304.96 116.09 306.43 117.2 307.29C123.61 312.33 130.69 314.85 138.45 314.85C146.21 314.85 153.65 312.19 160.13 306.86C162.2 305.04 163.67 303.57 164.53 302.46C169.57 296.05 172.09 288.97 172.09 281.21C172.09 273.45 169.43 266.01 164.1 259.53C162.28 257.46 160.81 255.99 159.7 255.13C153.29 250.09 146.21 247.57 138.45 247.57C130.69 247.57 123.25 250.23 116.77 255.56C114.7 257.38 113.23 258.85 112.37 259.96C107.33 266.37 104.81 273.45 104.81 281.21V281.21ZM137.83 251.49H139.07C144.01 251.49 148.94 252.91 153.86 255.75C159.57 259.23 163.73 264.24 166.35 270.78C167.56 274.29 168.17 277.56 168.17 280.59V281.83C168.17 286.78 166.75 291.7 163.91 296.62C160.5 302.2 155.66 306.29 149.41 308.87C145.77 310.24 142.33 310.93 139.07 310.93H137.83C132.88 310.93 127.96 309.51 123.04 306.67C117.46 303.26 113.37 298.42 110.79 292.17C109.42 288.53 108.73 285.09 108.73 281.83V280.59C108.73 275.65 110.15 270.72 112.99 265.8C116.44 260.22 121.25 256.13 127.44 253.55C131.04 252.18 134.51 251.49 137.82 251.49H137.83ZM121.42 281.11V281.3C121.42 285.73 123.03 289.67 126.25 293.12C129.76 296.53 133.79 298.24 138.36 298.24H138.55C142.98 298.24 146.92 296.63 150.37 293.41C153.78 289.9 155.49 285.87 155.49 281.3V281.11C155.49 276.68 153.88 272.74 150.66 269.29C147.15 265.88 143.12 264.17 138.55 264.17H138.36C133.93 264.17 129.99 265.78 126.54 269C123.13 272.51 121.42 276.54 121.42 281.11Z" fill="black"/>
<path d="M185.73 285.18L189.65 281.16C190.13 280.71 190.59 280.49 191.04 280.49C191.45 280.49 191.95 280.75 192.52 281.26L196.35 285.38C196.73 285.89 196.92 286.35 196.92 286.77C196.92 287.25 196.7 287.74 196.25 288.25L192.42 292.46C191.78 293.1 191.32 293.42 191.03 293.42C190.52 293.42 190.06 293.2 189.64 292.75L185.43 287.92C185.11 287.51 184.95 287.09 184.95 286.68C184.95 286.2 185.2 285.71 185.72 285.2L185.73 285.18ZM185.73 318.34L189.65 314.32C190.13 313.87 190.59 313.65 191.04 313.65C191.45 313.65 191.95 313.91 192.52 314.42L196.35 318.54C196.73 319.05 196.92 319.51 196.92 319.93C196.92 320.41 196.7 320.9 196.25 321.41L192.42 325.62C191.78 326.26 191.32 326.58 191.03 326.58C190.52 326.58 190.06 326.36 189.64 325.91L185.43 321.08C185.11 320.67 184.95 320.25 184.95 319.84C184.95 319.36 185.2 318.87 185.72 318.36L185.73 318.34Z" fill="black"/>
<path d="M213.05 244.6H232.57C234.64 244.6 236.57 245.54 238.36 247.42C239.57 248.98 240.18 250.58 240.18 252.21V310.06C240.18 312.17 239.22 314.1 237.31 315.85C235.75 317.06 234.17 317.67 232.57 317.67H222.33C220.45 317.67 218.69 316.92 217.07 315.42C215.47 313.79 214.68 311.88 214.68 309.68V270.06H213.53C210.31 270.06 207.87 268.56 206.21 265.56C205.7 264.44 205.44 263.41 205.44 262.45V252.21C205.44 250.1 206.38 248.17 208.26 246.42C209.85 245.21 211.45 244.6 213.05 244.6V244.6ZM208.26 253.17V261.45C208.26 263.49 208.82 264.96 209.93 265.85C210.89 266.74 212.07 267.19 213.47 267.19H216.53C217.07 267.19 217.41 267.56 217.53 268.29V309.68C217.53 311.91 218.66 313.54 220.93 314.56C221.5 314.75 222.27 314.85 223.23 314.85H231.56C233.35 314.85 234.67 314.44 235.53 313.61C236.33 312.97 236.89 312.02 237.2 310.74C237.26 310.39 237.3 309.85 237.3 309.11V253.17C237.3 251.38 236.88 250.06 236.06 249.2C235.45 248.43 234.54 247.88 233.33 247.53C232.82 247.47 232.23 247.43 231.56 247.43H214C212.25 247.43 210.92 247.85 210.03 248.67C209.26 249.28 208.72 250.19 208.4 251.4C208.3 251.94 208.26 252.53 208.26 253.17ZM232.38 251.11C232.86 251.11 233.26 251.41 233.58 252.02C233.64 252.12 233.68 252.26 233.68 252.45V309.78C233.68 310.45 233.3 310.91 232.53 311.17H222.48C221.62 310.98 221.19 310.47 221.19 309.64V263.56H213.63C212.8 263.56 212.27 263.24 212.05 262.6C211.99 262.5 211.95 262.39 211.95 262.27V252.46C211.95 251.82 212.33 251.38 213.1 251.12H232.38V251.11Z" fill="black"/>
<path d="M279.66 244.6H280.81C286.65 244.6 292.41 246.13 298.08 249.19C299.99 250.21 302.34 251.93 305.11 254.36C307.6 256.82 309.08 258.48 309.56 259.34C311.06 261.32 312.24 263.23 313.1 265.08C315.59 270.28 316.83 275.46 316.83 280.63V281.78C316.83 287.62 315.3 293.38 312.24 299.05C311.22 300.96 309.5 303.31 307.07 306.08C304.68 308.54 302.81 310.2 301.47 311.06C299.59 312.37 297.63 313.5 295.58 314.46C290.57 316.69 285.64 317.81 280.79 317.81H279.64C273.8 317.81 268.04 316.28 262.37 313.22C260.46 312.2 258.11 310.48 255.34 308.05C252.88 305.66 251.22 303.79 250.36 302.45C249.05 300.57 247.92 298.61 246.96 296.56C244.73 291.55 243.61 286.62 243.61 281.77V280.62C243.61 274.78 245.14 269.02 248.2 263.35C249.22 261.44 250.94 259.09 253.37 256.32C255.76 253.86 257.63 252.2 258.97 251.34C260.85 250.03 262.81 248.9 264.86 247.94C269.87 245.71 274.8 244.59 279.65 244.59L279.66 244.6ZM246.59 281.21C246.59 289.19 249.25 296.41 254.58 302.89C256.4 304.96 257.87 306.43 258.98 307.29C265.39 312.33 272.47 314.85 280.23 314.85C287.99 314.85 295.43 312.19 301.91 306.86C303.98 305.04 305.45 303.57 306.31 302.46C311.35 296.05 313.87 288.97 313.87 281.21C313.87 273.45 311.21 266.01 305.88 259.53C304.06 257.46 302.59 255.99 301.48 255.13C295.07 250.09 287.99 247.57 280.23 247.57C272.47 247.57 265.03 250.23 258.55 255.56C256.48 257.38 255.01 258.85 254.15 259.96C249.11 266.37 246.59 273.45 246.59 281.21V281.21ZM279.61 251.49H280.85C285.79 251.49 290.72 252.91 295.64 255.75C301.35 259.23 305.51 264.24 308.13 270.78C309.34 274.29 309.95 277.56 309.95 280.59V281.83C309.95 286.78 308.53 291.7 305.69 296.62C302.28 302.2 297.44 306.29 291.19 308.87C287.55 310.24 284.11 310.93 280.85 310.93H279.61C274.66 310.93 269.74 309.51 264.82 306.67C259.24 303.26 255.15 298.42 252.57 292.17C251.2 288.53 250.51 285.09 250.51 281.83V280.59C250.51 275.65 251.93 270.72 254.77 265.8C258.22 260.22 263.03 256.13 269.22 253.55C272.82 252.18 276.29 251.49 279.6 251.49H279.61ZM263.2 281.11V281.3C263.2 285.73 264.81 289.67 268.03 293.12C271.54 296.53 275.57 298.24 280.14 298.24H280.33C284.76 298.24 288.7 296.63 292.15 293.41C295.56 289.9 297.27 285.87 297.27 281.3V281.11C297.27 276.68 295.66 272.74 292.44 269.29C288.93 265.88 284.9 264.17 280.33 264.17H280.14C275.71 264.17 271.77 265.78 268.32 269C264.91 272.51 263.2 276.54 263.2 281.11Z" fill="black"/>
<path d="M111.47 222.03V200.56H114.31V219.5H124.89V222.03H111.47Z" fill="black"/>
<path d="M137.77 222.03V219.74C136.56 221.5 134.91 222.38 132.83 222.38C131.91 222.38 131.05 222.2 130.26 221.85C129.46 221.5 128.87 221.06 128.49 220.52C128.11 219.98 127.83 219.34 127.68 218.56C127.57 218.04 127.52 217.22 127.52 216.1V206.46H130.16V215.09C130.16 216.47 130.21 217.39 130.32 217.87C130.49 218.56 130.84 219.11 131.37 219.5C131.9 219.89 132.57 220.09 133.36 220.09C134.15 220.09 134.89 219.89 135.59 219.48C136.29 219.07 136.77 218.52 137.06 217.82C137.35 217.12 137.49 216.11 137.49 214.78V206.45H140.13V222.01H137.77V222.03Z" fill="black"/>
<path d="M143.9 222.03V206.47H146.27V208.68C147.41 206.97 149.06 206.12 151.22 206.12C152.16 206.12 153.02 206.29 153.8 206.63C154.58 206.97 155.18 207.41 155.57 207.96C155.96 208.51 156.23 209.16 156.39 209.91C156.49 210.4 156.54 211.25 156.54 212.47V222.04H153.9V212.58C153.9 211.51 153.8 210.7 153.59 210.17C153.38 209.64 153.02 209.21 152.5 208.9C151.98 208.58 151.36 208.42 150.66 208.42C149.54 208.42 148.57 208.78 147.75 209.49C146.93 210.2 146.53 211.56 146.53 213.55V222.05H143.89L143.9 222.03Z" fill="black"/>
<path d="M160.97 222.03V219.03H163.97V222.03H160.97Z" fill="black"/>
<path d="M197.28 219.5V222.03H183.09C183.07 221.4 183.17 220.78 183.4 220.2C183.76 219.23 184.34 218.28 185.14 217.34C185.94 216.4 187.09 215.32 188.59 214.09C190.92 212.18 192.5 210.66 193.32 209.54C194.14 208.42 194.55 207.36 194.55 206.37C194.55 205.33 194.18 204.44 193.43 203.73C192.68 203.01 191.71 202.65 190.51 202.65C189.24 202.65 188.22 203.03 187.46 203.79C186.7 204.55 186.31 205.61 186.3 206.95L183.59 206.67C183.78 204.65 184.47 203.11 185.68 202.05C186.89 200.99 188.52 200.46 190.56 200.46C192.6 200.46 194.25 201.03 195.45 202.17C196.65 203.31 197.25 204.73 197.25 206.42C197.25 207.28 197.07 208.12 196.72 208.95C196.37 209.78 195.78 210.65 194.97 211.57C194.16 212.49 192.8 213.75 190.91 215.35C189.33 216.68 188.31 217.58 187.86 218.05C187.41 218.52 187.04 219 186.75 219.48H197.28V219.5Z" fill="black"/>
<path d="M208.2 222.03V216.89H198.88V214.47L208.68 200.55H210.83V214.47H213.73V216.89H210.83V222.03H208.19H208.2ZM208.2 214.47V204.79L201.48 214.47H208.2Z" fill="black"/>
<path d="M223.79 214.25C223.79 211.37 224.59 209.24 226.19 207.85C227.53 206.7 229.16 206.12 231.08 206.12C233.22 206.12 234.97 206.82 236.32 208.22C237.67 209.62 238.36 211.56 238.36 214.03C238.36 216.03 238.06 217.61 237.46 218.75C236.86 219.9 235.99 220.79 234.84 221.42C233.69 222.05 232.44 222.37 231.08 222.37C228.9 222.37 227.14 221.67 225.8 220.28C224.46 218.89 223.79 216.87 223.79 214.24V214.25ZM226.5 214.25C226.5 216.24 226.93 217.73 227.8 218.73C228.67 219.73 229.76 220.22 231.08 220.22C232.4 220.22 233.48 219.72 234.35 218.73C235.22 217.74 235.65 216.22 235.65 214.17C235.65 212.25 235.21 210.79 234.34 209.8C233.46 208.81 232.38 208.31 231.08 208.31C229.78 208.31 228.67 208.8 227.8 209.79C226.93 210.78 226.5 212.27 226.5 214.26V214.25Z" fill="black"/>
<path d="M251.25 216.33L253.84 216.67C253.56 218.46 252.83 219.86 251.67 220.87C250.5 221.88 249.07 222.39 247.37 222.39C245.24 222.39 243.53 221.69 242.24 220.3C240.95 218.91 240.3 216.91 240.3 214.32C240.3 212.64 240.58 211.17 241.13 209.91C241.68 208.65 242.53 207.71 243.67 207.08C244.81 206.45 246.05 206.14 247.38 206.14C249.07 206.14 250.45 206.57 251.53 207.42C252.61 208.27 253.29 209.49 253.6 211.06L251.04 211.46C250.8 210.42 250.36 209.63 249.74 209.1C249.12 208.57 248.37 208.31 247.49 208.31C246.16 208.31 245.08 208.79 244.25 209.74C243.42 210.69 243 212.2 243 214.26C243 216.32 243.4 217.87 244.2 218.82C245 219.77 246.05 220.24 247.33 220.24C248.37 220.24 249.23 219.92 249.92 219.29C250.61 218.66 251.05 217.68 251.24 216.36L251.25 216.33Z" fill="black"/>
<path d="M261.5 219.67L261.88 222C261.14 222.16 260.47 222.23 259.89 222.23C258.93 222.23 258.19 222.08 257.66 221.78C257.13 221.48 256.76 221.08 256.55 220.59C256.34 220.1 256.23 219.06 256.23 217.48V208.53H254.3V206.48H256.23V202.63L258.85 201.05V206.48H261.5V208.53H258.85V217.63C258.85 218.38 258.9 218.87 258.99 219.08C259.08 219.29 259.23 219.47 259.44 219.59C259.65 219.71 259.95 219.78 260.34 219.78C260.63 219.78 261.02 219.75 261.5 219.68V219.67Z" fill="black"/>
<path d="M264.46 222.03V219.03H267.46V222.03H264.46Z" fill="black"/>
<path d="M143.12 511.45V492.51H136.04V489.98H153.06V492.51H145.96V511.45H143.12Z" fill="black"/>
<path d="M155.3 493.01V489.98H157.94V493.01H155.3ZM155.3 511.45V495.89H157.94V511.45H155.3Z" fill="black"/>
<path d="M161.81 511.45V489.98H164.65V500.63L175.31 489.98H179.16L170.15 498.68L179.55 511.45H175.8L168.15 500.58L164.63 504.01V511.45H161.79H161.81Z" fill="black"/>
<path d="M180.86 500.93C180.86 499.9 181.22 499.03 181.95 498.31C182.68 497.59 183.55 497.23 184.57 497.23C185.59 497.23 186.47 497.59 187.2 498.31C187.93 499.03 188.29 499.91 188.29 500.93C188.29 501.95 187.93 502.83 187.2 503.56C186.47 504.29 185.6 504.65 184.57 504.65C183.54 504.65 182.68 504.29 181.95 503.56C181.22 502.83 180.86 501.96 180.86 500.93Z" fill="black"/>
<path d="M197.18 511.45V492.51H190.1V489.98H207.12V492.51H200.02V511.45H197.18Z" fill="black"/>
<path d="M219.5 509.53C218.52 510.36 217.58 510.95 216.68 511.29C215.78 511.63 214.81 511.8 213.77 511.8C212.06 511.8 210.75 511.38 209.83 510.55C208.91 509.72 208.45 508.65 208.45 507.35C208.45 506.59 208.62 505.89 208.97 505.26C209.32 504.63 209.77 504.12 210.33 503.74C210.89 503.36 211.52 503.07 212.23 502.88C212.75 502.74 213.53 502.61 214.57 502.48C216.7 502.23 218.27 501.92 219.27 501.57C219.27 501.21 219.28 500.98 219.28 500.88C219.28 499.81 219.03 499.05 218.53 498.61C217.86 498.01 216.86 497.72 215.53 497.72C214.29 497.72 213.37 497.94 212.78 498.37C212.19 498.8 211.75 499.57 211.47 500.68L208.89 500.33C209.12 499.23 209.51 498.34 210.05 497.66C210.59 496.98 211.36 496.46 212.38 496.09C213.4 495.72 214.57 495.54 215.91 495.54C217.25 495.54 218.32 495.7 219.15 496.01C219.98 496.32 220.59 496.72 220.98 497.19C221.37 497.66 221.64 498.26 221.8 498.98C221.89 499.43 221.93 500.24 221.93 501.41V504.93C221.93 507.38 221.99 508.93 222.1 509.58C222.21 510.23 222.43 510.85 222.77 511.45H220.02C219.75 510.9 219.57 510.26 219.49 509.53H219.5ZM219.28 503.64C218.32 504.03 216.89 504.36 214.97 504.64C213.89 504.8 213.12 504.97 212.67 505.17C212.22 505.37 211.87 505.65 211.63 506.03C211.39 506.41 211.26 506.82 211.26 507.28C211.26 507.98 211.53 508.57 212.06 509.04C212.59 509.51 213.37 509.74 214.4 509.74C215.43 509.74 216.32 509.52 217.11 509.07C217.9 508.62 218.48 508.02 218.85 507.25C219.13 506.65 219.27 505.78 219.27 504.61V503.64H219.28Z" fill="black"/>
<path d="M225.89 511.45V489.98H228.73V500.63L239.39 489.98H243.24L234.23 498.68L243.63 511.45H239.88L232.23 500.58L228.71 504.01V511.45H225.87H225.89Z" fill="black"/>
</g>
<defs>
<clipPath id="clip0_23_164">
<rect width="380.41" height="711" fill="white"/>
</clipPath>
</defs>
</svg>
